<svg width="72" height="72" viewBox="0 0 72 72" xmlns="http://www.w3.org/2000/svg">
  <path d="M36 6C39.7 6 42.8 8.8 43.2 12.5L45.1 29.5L61.1 39.8C62.9 40.9 64 42.9 64 45V48.2C64 50.8 61.1 52.4 58.9 51L46.6 43.3L45.2 54.8L50.3 59.5C51.4 60.5 52 61.9 52 63.4V66L36 61.6L20 66V63.4C20 61.9 20.6 60.5 21.7 59.5L26.8 54.8L25.4 43.3L13.1 51C10.9 52.4 8 50.8 8 48.2V45C8 42.9 9.1 40.9 10.9 39.8L26.9 29.5L28.8 12.5C29.2 8.8 32.3 6 36 6Z" fill="currentColor"></path>
  <ellipse cx="36" cy="18" rx="4" ry="4.5" fill="white" opacity="0.9"></ellipse>
  <ellipse cx="36" cy="30" rx="4" ry="4.5" fill="white" opacity="0.9"></ellipse>
  <path d="M27.5 37.5C30.4 39.4 33.2 40.3 36 40.3C38.8 40.3 41.6 39.4 44.5 37.5" fill="none" stroke="white" stroke-width="2.4" stroke-linecap="round" opacity="0.55"></path>
</svg>